<svg width="18" height="18" viewBox="0 0 18 18" fill="none" xmlns="http://www.w3.org/2000/svg">
<path fill-rule="evenodd" clip-rule="evenodd" d="M2.31845 6.99383C4.15524 10.9958 7.42378 14.1774 11.487 15.9015L11.4998 15.9069L12.2848 16.257C13.2843 16.7026 14.4592 16.3861 15.1001 15.4986L16.4097 13.685C16.4897 13.5742 16.4691 13.4202 16.3628 13.3343L14.0765 11.4888C13.9628 11.3971 13.7957 11.4184 13.7087 11.5358L12.8189 12.7372C12.6028 13.029 12.2125 13.1304 11.8819 12.9807C8.84361 11.6049 6.40214 9.16201 5.02717 6.122C4.87752 5.79114 4.97885 5.40065 5.27046 5.18442L6.47118 4.29408C6.58851 4.20708 6.60986 4.03985 6.51817 3.92613L4.67344 1.63816C4.5877 1.53182 4.4338 1.51117 4.32309 1.59114L2.50071 2.9075C1.60787 3.55242 1.29344 4.73787 1.74918 5.74091L2.31784 6.99249C2.31804 6.99294 2.31825 6.99338 2.31845 6.99383ZM10.8787 17.3187C6.46375 15.4436 2.91273 11.9854 0.916923 7.63608L0.915721 7.63346L0.345868 6.37925C-0.413692 4.70753 0.110352 2.73178 1.59842 1.65691L3.4208 0.340545C4.1958 -0.219257 5.27304 -0.0746758 5.87321 0.669689L7.71794 2.95766C8.35979 3.75372 8.21029 4.92431 7.38901 5.5333L6.70097 6.04348C7.86319 8.29993 9.70519 10.143 11.9603 11.3059L12.4702 10.6175C13.0789 9.79569 14.2488 9.64611 15.0444 10.2883L17.3307 12.1339C18.0749 12.7346 18.2192 13.8129 17.6592 14.5883L16.3496 16.4019C15.2815 17.8811 13.3233 18.4085 11.6574 17.6659L10.8787 17.3187Z" fill="#D1A19C"/>
</svg>
